<svg xmlns="http://www.w3.org/2000/svg" viewBox="0 0 22 22" width="22" height="22">
  <path d="M11,22c10.37,0,11-.63,11-11S21.37,0,11,0c-1.05,0-1.99,0-2.85.03-.15,0-.23.19-.12.3l3.85,3.85s.08.05.12.05h3.2c.19,0,.37.04.54.11.17.07.32.17.44.3l.55.55c.27.27.41.59.41.96,0,.37-.14.69-.41.96l-3.72,3.72c-.07.07-.07.18,0,.25l5.51,5.51c.27.27.41.59.41.96s-.14.69-.41.96c-.27.27-.59.41-.96.41-.37,0-.69-.14-.96-.41l-5.51-5.51c-.07-.07-.18-.07-.25,0l-3.72,3.72c-.27.27-.59.41-.96.41-.37,0-.69-.14-.96-.41l-.55-.55c-.13-.13-.23-.28-.3-.44-.07-.17-.11-.35-.11-.54v-3.2s-.02-.09-.05-.12L.33,8.03c-.11-.11-.3-.04-.3.12-.02.86-.03,1.8-.03,2.85,0,10.37.63,11,11,11Z" style="fill: #c6005c; fill-rule: evenodd;"/>
</svg>