<svg width="22" height="22" viewBox="0 0 22 22" fill="none" xmlns="http://www.w3.org/2000/svg">
  <path fill-rule="evenodd" clip-rule="evenodd" d="M0 7.54247V16C0 19.3137 2.68629 22 6 22H16C19.3137 22 22 19.3137 22 16V6C22 2.68629 19.3137 0 16 0H7.54247L11.9134 4.3709L15.1189 4.3709C15.3075 4.3709 15.4844 4.40641 15.6497 4.47744C15.815 4.54846 15.9602 4.64651 16.0853 4.77159L16.6274 5.31371C16.8945 5.58084 17.0278 5.89511 17.0272 6.25652C17.0265 6.61793 16.8933 6.9322 16.6274 7.19933L12.8562 10.9706L18.3716 16.486C18.6387 16.7531 18.7723 17.0677 18.7723 17.4297C18.7723 17.7918 18.6387 18.1057 18.3716 18.3716C18.1045 18.6375 17.7902 18.7707 17.4288 18.7714C17.0674 18.772 16.7531 18.6387 16.486 18.3716L10.9706 12.8562L7.19933 16.6274C6.9322 16.8945 6.61793 17.0278 6.25652 17.0272C5.89511 17.0265 5.58084 16.8933 5.31371 16.6274L4.77159 16.0853C4.64589 15.9596 4.54783 15.8144 4.47744 15.6497C4.40704 15.485 4.37153 15.3081 4.3709 15.1189V11.9134L0 7.54247Z" fill="#BF0549"/>
</svg>