<svg xmlns="http://www.w3.org/2000/svg" viewBox="0 0 64 64" width="64" height="64">
  <path d="M12,44.67c-.17,0-.34-.07-.47-.2l-3.53-3.53-3.53,3.53c-.26.26-.68.26-.94,0s-.26-.68,0-.94l3.53-3.53-3.53-3.53c-.26-.26-.26-.68,0-.94s.68-.26.94,0l3.53,3.53,3.53-3.53c.26-.26.68-.26.94,0s.26.68,0,.94l-3.53,3.53,3.53,3.53c.26.26.26.68,0,.94-.13.13-.3.2-.47.2Z"/>
  <path d="M28,12.67c-.17,0-.34-.06-.47-.2l-3.53-3.53-3.53,3.53c-.26.26-.68.26-.94,0-.26-.26-.26-.68,0-.94l3.53-3.53-3.53-3.53c-.26-.26-.26-.68,0-.94.26-.26.68-.26.94,0l3.53,3.53,3.53-3.53c.26-.26.68-.26.94,0,.26.26.26.68,0,.94l-3.53,3.53,3.53,3.53c.26.26.26.68,0,.94-.13.13-.3.2-.47.2Z"/>
  <path d="M44,28.67c-.17,0-.34-.06-.47-.2l-3.53-3.53-3.53,3.53c-.26.26-.68.26-.94,0-.26-.26-.26-.68,0-.94l3.53-3.53-3.53-3.53c-.26-.26-.26-.68,0-.94.26-.26.68-.26.94,0l3.53,3.53,3.53-3.53c.26-.26.68-.26.94,0,.26.26.26.68,0,.94l-3.53,3.53,3.53,3.53c.26.26.26.68,0,.94-.13.13-.3.2-.47.2Z"/>
  <path d="M60,60.67c-.17,0-.34-.07-.47-.2l-3.53-3.53-3.53,3.53c-.26.26-.68.26-.94,0-.26-.26-.26-.68,0-.94l3.53-3.53-3.53-3.53c-.26-.26-.26-.68,0-.94.26-.26.68-.26.94,0l3.53,3.53,3.53-3.53c.26-.26.68-.26.94,0,.26.26.26.68,0,.94l-3.53,3.53,3.53,3.53c.26.26.26.68,0,.94-.13.13-.3.2-.47.2Z"/>
  <path d="M60,28.67c-.17,0-.34-.06-.47-.2l-3.53-3.53-3.53,3.53c-.26.26-.68.26-.94,0-.26-.26-.26-.68,0-.94l3.53-3.53-3.53-3.53c-.26-.26-.26-.68,0-.94.26-.26.68-.26.94,0l3.53,3.53,3.53-3.53c.26-.26.68-.26.94,0,.26.26.26.68,0,.94l-3.53,3.53,3.53,3.53c.26.26.26.68,0,.94-.13.13-.3.2-.47.2Z"/>
  <path d="M6.67,12h0c-.18,0-.35-.07-.47-.2l-3.33-3.33c-.26-.26-.26-.68,0-.94s.68-.26.94,0l2.86,2.86,6.2-6.19c.26-.26.68-.26.94,0,.26.26.26.68,0,.94l-6.67,6.67c-.12.12-.29.2-.47.2Z"/>
  <path d="M22.67,28c-.17,0-.34-.06-.47-.2l-3.33-3.33c-.26-.26-.26-.68,0-.94.26-.26.68-.26.94,0l2.86,2.86,6.2-6.19c.26-.26.68-.26.94,0,.26.26.26.68,0,.94l-6.67,6.67c-.13.13-.3.2-.47.2Z"/>
  <path d="M38.67,12h0c-.18,0-.35-.07-.47-.2l-3.33-3.33c-.26-.26-.26-.68,0-.94.26-.26.68-.26.94,0l2.86,2.86,6.19-6.19c.26-.26.68-.26.94,0,.26.26.26.68,0,.94l-6.67,6.67c-.12.12-.29.2-.47.2Z"/>
  <path d="M6.67,60c-.18,0-.35-.07-.47-.2l-3.33-3.33c-.26-.26-.26-.68,0-.94s.68-.26.94,0l2.86,2.86,6.2-6.2c.26-.26.68-.26.94,0s.26.68,0,.94l-6.67,6.67c-.12.12-.29.2-.47.2Z"/>
  <path d="M54.67,44c-.17,0-.34-.07-.47-.2l-3.33-3.33c-.26-.26-.26-.68,0-.94.26-.26.68-.26.94,0l2.86,2.86,6.2-6.2c.26-.26.68-.26.94,0,.26.26.26.68,0,.94l-6.67,6.67c-.13.13-.3.2-.47.2Z"/>
  <path d="M38.67,60c-.18,0-.35-.07-.47-.2l-3.33-3.33c-.26-.26-.26-.68,0-.94.26-.26.68-.26.94,0l2.86,2.86,6.19-6.2c.26-.26.68-.26.94,0,.26.26.26.68,0,.94l-6.67,6.67c-.12.12-.29.2-.47.2Z"/>
  <path d="M22.67,44c-.17,0-.34-.07-.47-.2l-3.33-3.33c-.26-.26-.26-.68,0-.94.26-.26.68-.26.94,0l2.86,2.86,6.2-6.2c.26-.26.68-.26.94,0s.26.68,0,.94l-6.67,6.67c-.13.13-.3.2-.47.2Z"/>
  <path d="M40,45.39c-.37,0-.67-.3-.67-.67s.3-.68.67-.68.67.3.67.67h0c0,.38-.3.68-.67.68ZM40,42.69c-.36,0-.66-.28-.67-.64-.06-1.48.63-2.81,1.73-3.33.02,0,.04-.02.06-.03.56-.2.93-.75.9-1.35,0-.78-.76-1.38-1.68-1.38h-.67c-.93,0-1.68.6-1.68,1.35,0,.37-.3.67-.67.67s-.67-.3-.67-.67c0-1.48,1.36-2.69,3.03-2.69h.67c1.67,0,3.03,1.21,3.03,2.69.07,1.14-.65,2.23-1.76,2.64-.58.29-.97,1.14-.93,2.04.02.37-.27.69-.64.7,0,0-.02,0-.03,0Z"/>
  <path d="M24,61.39c-.37,0-.67-.3-.67-.67s.3-.68.67-.68.67.3.67.67h0c0,.38-.3.68-.67.68ZM24,58.69c-.36,0-.66-.28-.67-.64-.06-1.48.63-2.81,1.73-3.33.02,0,.04-.02.06-.03.56-.2.93-.75.9-1.35,0-.78-.76-1.38-1.68-1.38h-.67c-.93,0-1.68.6-1.68,1.35,0,.37-.3.67-.67.67s-.67-.3-.67-.67c0-1.48,1.36-2.69,3.03-2.69h.67c1.67,0,3.03,1.21,3.03,2.69.07,1.14-.65,2.23-1.76,2.64-.58.29-.97,1.14-.93,2.04.02.37-.27.69-.64.7,0,0-.02,0-.03,0Z"/>
  <path d="M8,29.39c-.37,0-.67-.3-.67-.67s.3-.68.67-.68.67.3.67.67h0c0,.38-.3.68-.67.68ZM8,26.69c-.36,0-.66-.28-.67-.64-.06-1.48.63-2.81,1.73-3.33.02,0,.04-.02.06-.03.56-.2.93-.75.9-1.35,0-.78-.76-1.38-1.68-1.38h-.67c-.93,0-1.68.6-1.68,1.35,0,.37-.3.67-.67.67s-.67-.3-.67-.67c0-1.48,1.36-2.69,3.03-2.69h.67c1.67,0,3.03,1.21,3.03,2.69.07,1.14-.65,2.23-1.76,2.64-.58.29-.97,1.14-.93,2.04.02.37-.27.69-.64.7,0,0-.02,0-.03,0Z"/>
  <path d="M56,13.39c-.37,0-.67-.3-.67-.67s.3-.68.67-.68.67.3.67.67h0c0,.38-.3.68-.67.68ZM56,10.69c-.36,0-.66-.28-.67-.64-.06-1.48.63-2.81,1.73-3.33.02,0,.04-.02.06-.03.56-.2.93-.75.9-1.35,0-.78-.76-1.38-1.68-1.38h-.67c-.93,0-1.68.6-1.68,1.35,0,.37-.3.67-.67.67s-.67-.3-.67-.67c0-1.48,1.36-2.69,3.03-2.69h.67c1.67,0,3.03,1.21,3.03,2.69.07,1.14-.65,2.23-1.76,2.64-.58.29-.97,1.14-.93,2.04.02.37-.27.69-.64.7,0,0-.02,0-.03,0Z"/>
</svg>